<svg xmlns="http://www.w3.org/2000/svg" viewBox="0 0 512 512" width="512" height="512">
  <defs>
    <linearGradient id="skyGrad" x1="0%" y1="0%" x2="0%" y2="100%">
      <stop offset="0%" style="stop-color:#ebe6da"/>
      <stop offset="100%" style="stop-color:#f5f1e6"/>
    </linearGradient>
    <linearGradient id="sunGrad" x1="0%" y1="0%" x2="0%" y2="100%">
      <stop offset="0%" style="stop-color:#fbb03b"/>
      <stop offset="100%" style="stop-color:#f7931e"/>
    </linearGradient>
    <linearGradient id="mt1Grad" x1="0%" y1="0%" x2="0%" y2="100%">
      <stop offset="0%" style="stop-color:#8899a6"/>
      <stop offset="100%" style="stop-color:#6d7f8c"/>
    </linearGradient>
    <linearGradient id="mt2Grad" x1="0%" y1="0%" x2="0%" y2="100%">
      <stop offset="0%" style="stop-color:#7a8b98"/>
      <stop offset="100%" style="stop-color:#5c6d7a"/>
    </linearGradient>
    <linearGradient id="hillGrad1" x1="0%" y1="0%" x2="0%" y2="100%">
      <stop offset="0%" style="stop-color:#8ba56a"/>
      <stop offset="100%" style="stop-color:#6b8550"/>
    </linearGradient>
    <linearGradient id="hillGrad2" x1="0%" y1="0%" x2="0%" y2="100%">
      <stop offset="0%" style="stop-color:#7a9459"/>
      <stop offset="100%" style="stop-color:#5a7439"/>
    </linearGradient>
    <linearGradient id="jacketGrad" x1="0%" y1="0%" x2="0%" y2="100%">
      <stop offset="0%" style="stop-color:#e25d3d"/>
      <stop offset="100%" style="stop-color:#c4442a"/>
    </linearGradient>
    <linearGradient id="beanieGrad" x1="0%" y1="0%" x2="0%" y2="100%">
      <stop offset="0%" style="stop-color:#c44545"/>
      <stop offset="100%" style="stop-color:#9a3030"/>
    </linearGradient>
    <linearGradient id="packGrad" x1="0%" y1="0%" x2="100%" y2="0%">
      <stop offset="0%" style="stop-color:#5a6a5c"/>
      <stop offset="50%" style="stop-color:#6a7a6c"/>
      <stop offset="100%" style="stop-color:#4a5a4c"/>
    </linearGradient>
    <linearGradient id="grayJacketGrad" x1="0%" y1="0%" x2="0%" y2="100%">
      <stop offset="0%" style="stop-color:#6a7a7a"/>
      <stop offset="100%" style="stop-color:#4a5a5a"/>
    </linearGradient>
    <clipPath id="circleClip">
      <circle cx="256" cy="256" r="232"/>
    </clipPath>
  </defs>

  <!-- Outer dark brown border -->
  <circle cx="256" cy="256" r="250" fill="#3a2a1a"/>

  <!-- Thin inner border line -->
  <circle cx="256" cy="256" r="238" fill="none" stroke="#4a3a2a" stroke-width="2"/>

  <!-- Inner cream background -->
  <circle cx="256" cy="256" r="232" fill="url(#skyGrad)"/>

  <!-- Clipped content -->
  <g clip-path="url(#circleClip)">

    <!-- Sun -->
    <circle cx="355" cy="145" r="26" fill="url(#sunGrad)"/>

    <!-- Back mountain (left) -->
    <path d="M 30 295 L 140 155 L 180 190 L 240 130 L 300 190 L 350 295 Z" fill="url(#mt2Grad)"/>
    <!-- Snow on back mountain -->
    <path d="M 240 130 L 215 165 L 225 170 L 240 150 L 255 170 L 265 165 Z" fill="#fff"/>
    <path d="M 230 158 L 220 175 L 230 172 Z" fill="#fff"/>
    <path d="M 250 158 L 260 175 L 250 172 Z" fill="#fff"/>

    <!-- Front mountain (right) -->
    <path d="M 220 295 L 340 140 L 400 195 L 460 160 L 530 295 Z" fill="url(#mt1Grad)"/>
    <!-- Snow on front mountain peak 1 -->
    <path d="M 340 140 L 310 185 L 325 185 L 340 162 L 355 185 L 370 185 Z" fill="#fff"/>
    <path d="M 325 175 L 315 195 L 328 190 Z" fill="#fff"/>
    <path d="M 355 175 L 365 195 L 352 190 Z" fill="#fff"/>
    <!-- Snow on front mountain peak 2 -->
    <path d="M 460 160 L 438 190 L 450 190 L 460 175 L 470 190 L 482 190 Z" fill="#fff"/>

    <!-- Tree line silhouette -->
    <path d="M 0 295
             L 25 295 L 32 268 L 39 295
             L 55 295 L 65 262 L 75 295
             L 95 295 L 108 255 L 121 295
             L 140 295 L 152 260 L 164 295
             L 185 295 L 200 252 L 215 295
             L 240 295 L 255 258 L 270 295
             L 295 295 L 310 255 L 325 295
             L 350 295 L 365 262 L 380 295
             L 405 295 L 418 268 L 431 295
             L 455 295 L 465 272 L 475 295
             L 520 295 L 520 310 L 0 310 Z"
          fill="#2d3d2f"/>

    <!-- Rolling hills -->
    <ellipse cx="420" cy="360" rx="180" ry="75" fill="url(#hillGrad1)"/>
    <ellipse cx="100" cy="380" rx="170" ry="70" fill="url(#hillGrad2)"/>
    <ellipse cx="280" cy="400" rx="200" ry="65" fill="url(#hillGrad1)"/>

    <!-- Winding trail path -->
    <path d="M 295 540 Q 310 460, 340 420 Q 380 375, 355 340 Q 320 300, 365 265"
          fill="none" stroke="#d8d0c0" stroke-width="14" stroke-linecap="round"/>
    <path d="M 295 540 Q 310 460, 340 420 Q 380 375, 355 340 Q 320 300, 365 265"
          fill="none" stroke="#cec6b6" stroke-width="6" stroke-linecap="round"/>

    <!-- Foreground hill -->
    <ellipse cx="256" cy="540" rx="320" ry="140" fill="#5d7d40"/>

    <!-- ========== HIKER ========== -->

    <!-- Backpack (behind everything) -->
    <path d="M 68 265
             Q 38 280, 32 340
             L 28 430
             Q 28 470, 55 480
             L 95 480
             Q 108 460, 105 420
             L 108 330
             Q 108 280, 88 265 Z"
          fill="url(#packGrad)"/>

    <!-- Backpack roll top -->
    <ellipse cx="78" cy="262" rx="24" ry="14" fill="#7a8a7c"/>

    <!-- Backpack details -->
    <rect x="45" y="305" width="40" height="8" rx="3" fill="#4a5a4c"/>
    <rect x="42" y="360" width="45" height="7" rx="3" fill="#4a5a4c"/>
    <ellipse cx="65" cy="400" rx="20" ry="28" fill="#5a6a5c"/>
    <path d="M 75 280 L 78 340 Q 82 350, 92 345 L 88 285 Q 85 275, 75 280 Z" fill="#4a5a4c"/>

    <!-- Gray outer jacket -->
    <path d="M 105 305
             Q 98 280, 118 260
             L 150 265
             Q 172 280, 168 320
             L 175 430
             Q 170 490, 148 520
             L 102 520
             Q 88 480, 95 420 Z"
          fill="url(#grayJacketGrad)"/>

    <!-- Orange jacket (center) -->
    <path d="M 118 285
             Q 130 272, 158 275
             Q 188 282, 198 305
             L 210 440
             Q 202 510, 182 545
             L 128 550
             Q 100 515, 105 430 Z"
          fill="url(#jacketGrad)"/>

    <!-- Jacket center line/zipper -->
    <line x1="168" y1="300" x2="162" y2="545" stroke="#a83820" stroke-width="3"/>

    <!-- Gray jacket collar -->
    <path d="M 128 280 Q 148 268, 175 282 Q 182 295, 170 305 Q 155 290, 138 305 Q 125 295, 128 280 Z"
          fill="#5a6a6a"/>

    <!-- Left arm with gray sleeve (reaching up to strap) -->
    <path d="M 108 310
             Q 85 325, 88 370
             L 98 405
             Q 112 420, 128 405
             L 130 355
             Q 135 320, 118 305 Z"
          fill="url(#jacketGrad)"/>
    <path d="M 105 310 Q 82 320, 85 355 L 88 370 Q 95 375, 105 368 L 108 340 Q 110 318, 105 310 Z"
          fill="#5a6a6a"/>

    <!-- Left hand gripping strap -->
    <ellipse cx="112" cy="408" rx="14" ry="16" fill="#d4a574"/>
    <path d="M 100 400 Q 95 408, 100 418 L 108 420 L 110 405 Z" fill="#c49564"/>

    <!-- Right arm -->
    <path d="M 185 310
             Q 215 340, 208 390
             L 195 440
             Q 180 460, 162 445
             L 172 385
             Q 175 335, 175 310 Z"
          fill="url(#jacketGrad)"/>
    <path d="M 188 310 Q 210 335, 205 370 L 200 390 Q 192 395, 185 385 L 188 355 Q 190 325, 188 310 Z"
          fill="#5a6a6a"/>

    <!-- Right hand -->
    <ellipse cx="185" cy="448" rx="14" ry="16" fill="#d4a574"/>

    <!-- Neck -->
    <ellipse cx="165" cy="268" rx="20" ry="14" fill="#d4a574"/>

    <!-- Head/Face -->
    <ellipse cx="168" cy="218" rx="45" ry="50" fill="#d4a574"/>

    <!-- Ears -->
    <ellipse cx="122" cy="220" rx="10" ry="14" fill="#c49564"/>
    <ellipse cx="214" cy="220" rx="10" ry="14" fill="#c49564"/>

    <!-- Beard -->
    <path d="M 128 235
             Q 120 270, 140 295
             Q 168 315, 200 295
             Q 220 270, 212 235
             Q 205 255, 168 262
             Q 132 255, 128 235 Z"
          fill="#a0a0a0"/>

    <!-- Beard texture -->
    <path d="M 142 260 Q 148 285, 152 295" stroke="#909090" stroke-width="1.5" fill="none"/>
    <path d="M 165 264 Q 168 290, 170 302" stroke="#909090" stroke-width="1.5" fill="none"/>
    <path d="M 188 260 Q 186 285, 183 295" stroke="#909090" stroke-width="1.5" fill="none"/>
    <path d="M 155 258 Q 158 280, 160 292" stroke="#909090" stroke-width="1.5" fill="none"/>
    <path d="M 178 260 Q 176 282, 175 294" stroke="#909090" stroke-width="1.5" fill="none"/>

    <!-- Mustache -->
    <path d="M 145 242 Q 168 255, 192 242 Q 185 250, 168 252 Q 150 250, 145 242 Z" fill="#959595"/>

    <!-- Smile with teeth -->
    <path d="M 150 248 Q 168 262, 186 248" stroke="#ffffff" stroke-width="5" fill="none" stroke-linecap="round"/>

    <!-- Nose -->
    <path d="M 166 205 Q 175 218, 170 232 Q 165 236, 160 232" stroke="#c49564" stroke-width="4" fill="none" stroke-linecap="round"/>

    <!-- Sunglasses -->
    <ellipse cx="148" cy="205" rx="22" ry="17" fill="#1a1a1a"/>
    <ellipse cx="192" cy="205" rx="22" ry="17" fill="#1a1a1a"/>
    <path d="M 170 205 L 175 202" stroke="#1a1a1a" stroke-width="5"/>
    <path d="M 126 200 Q 115 192, 100 196" stroke="#1a1a1a" stroke-width="4" fill="none"/>
    <path d="M 214 200 Q 225 192, 235 198" stroke="#1a1a1a" stroke-width="4" fill="none"/>
    <!-- Lens highlights -->
    <ellipse cx="142" cy="198" rx="7" ry="4" fill="#2a2a2a"/>
    <ellipse cx="186" cy="198" rx="7" ry="4" fill="#2a2a2a"/>

    <!-- Beanie -->
    <path d="M 118 198
             Q 110 168, 128 138
             Q 168 108, 210 138
             Q 228 168, 220 198
             Q 212 175, 168 168
             Q 125 175, 118 198 Z"
          fill="url(#beanieGrad)"/>

    <!-- Beanie ribbed band -->
    <path d="M 118 198
             Q 125 185, 168 180
             Q 212 185, 220 198
             Q 212 212, 168 216
             Q 125 212, 118 198 Z"
          fill="#a03535"/>

    <!-- Beanie knit lines -->
    <path d="M 138 175 Q 145 148, 155 135" stroke="#b04040" stroke-width="2.5" fill="none"/>
    <path d="M 168 172 Q 170 142, 172 125" stroke="#b04040" stroke-width="2.5" fill="none"/>
    <path d="M 198 175 Q 195 148, 188 138" stroke="#b04040" stroke-width="2.5" fill="none"/>

    <!-- Beanie pom-pom -->
    <circle cx="172" cy="118" r="18" fill="#c44545"/>
    <circle cx="168" cy="114" r="5" fill="#d45555"/>
    <circle cx="178" cy="120" r="4" fill="#d45555"/>

  </g>

  <!-- ========== CURVED TEXT ========== -->

  <!-- BIGFUN HIKES - main title curved at top, tighter spacing -->
  <g font-family="Arial Black, sans-serif" font-weight="900" fill="#3a2a1a" font-size="36">
    <text x="62" y="98" transform="rotate(-52, 62, 98)">B</text>
    <text x="85" y="76" transform="rotate(-43, 85, 76)">I</text>
    <text x="105" y="60" transform="rotate(-34, 105, 60)">G</text>
    <text x="134" y="46" transform="rotate(-23, 134, 46)">F</text>
    <text x="164" y="38" transform="rotate(-12, 164, 38)">U</text>
    <text x="198" y="34" transform="rotate(0, 198, 34)">N</text>
    <text x="250" y="36" transform="rotate(12, 250, 36)">H</text>
    <text x="286" y="44" transform="rotate(23, 286, 44)">I</text>
    <text x="310" y="56" transform="rotate(33, 310, 56)">K</text>
    <text x="342" y="74" transform="rotate(44, 342, 74)">E</text>
    <text x="372" y="98" transform="rotate(54, 372, 98)">S</text>
  </g>

  <!-- APPALACHIAN TRAIL 2026 - subtitle curved below main title -->
  <g font-family="Arial, sans-serif" font-weight="700" fill="#3a2a1a" font-size="13">
    <text x="88" y="125" transform="rotate(-48, 88, 125)">A</text>
    <text x="101" y="114" transform="rotate(-43, 101, 114)">P</text>
    <text x="114" y="104" transform="rotate(-38, 114, 104)">P</text>
    <text x="128" y="95" transform="rotate(-32, 128, 95)">A</text>
    <text x="142" y="88" transform="rotate(-26, 142, 88)">L</text>
    <text x="155" y="82" transform="rotate(-20, 155, 82)">A</text>
    <text x="170" y="77" transform="rotate(-14, 170, 77)">C</text>
    <text x="185" y="74" transform="rotate(-8, 185, 74)">H</text>
    <text x="201" y="71" transform="rotate(-2, 201, 71)">I</text>
    <text x="213" y="70" transform="rotate(3, 213, 70)">A</text>
    <text x="229" y="71" transform="rotate(9, 229, 71)">N</text>
    <text x="256" y="76" transform="rotate(17, 256, 76)">T</text>
    <text x="270" y="81" transform="rotate(23, 270, 81)">R</text>
    <text x="285" y="88" transform="rotate(29, 285, 88)">A</text>
    <text x="300" y="96" transform="rotate(35, 300, 96)">I</text>
    <text x="311" y="104" transform="rotate(40, 311, 104)">L</text>
    <text x="332" y="118" transform="rotate(48, 332, 118)">2</text>
    <text x="346" y="132" transform="rotate(54, 346, 132)">0</text>
    <text x="360" y="148" transform="rotate(60, 360, 148)">2</text>
    <text x="372" y="165" transform="rotate(66, 372, 165)">6</text>
  </g>

</svg>
